# xmcd
#
# Track frame offsets:
#	150
#	7045
#	15265
#	21665
#	29930
#	37098
#	43953
#	53388
#	65723
#	73150
#	82668
#	91208
#	101858
#	108388
#
# Disc length: 1617 seconds
#
# Revision: 1
# Processed by: cddbd v1.5.1PL0 Copyright (c) Steve Scherf et al.
# Submitted via: CDex 1.50Beta5
#
DISCID=be064f0e
DTITLE=Daphne Shepherd - 0歳の音楽シリーズ やさしい英語のうた
DYEAR=2001
DGENRE=
TTITLE0=Daphne Shepherd/This Little Pig Went To Market こぶたちゃん市場へいった
TTITLE1=Thomas Flavin/Bear Went To Over The Mountain 熊さんが山へ行きました,The
TTITLE2=Daphne Shepherd/Ride A Cock-Horse 木馬にのって
TTITLE3=Catherine McMahon/Two Little Dicky Birds 2羽の小鳥
TTITLE4=Catherine McMahon/I Have Two Eyes to See With おめめがふたつ
TTITLE5=Claire Baker/Dance to Your Daddy パパとダンスを踊ろう
TTITLE6=Daphne Shepherd/Good Morning To You おはよう
TTITLE7=Daphne Shepherd/Are You Sleeping? あさねぼうの歌
TTITLE8=Thomas Flavin/Rub-A-Dub-Dub どんぶらこっこ どんぶらこ
TTITLE9=Daphne Shepherd/Pussy Cat,Pussy Cat ネコちゃん、ネコちゃん
TTITLE10=Catherine McMahon/Little Bo-Peep Has Lost Her Sheep ちっちゃなボー・ピープ
TTITLE11=Lisa Wilkinson/Baa Baa Black Sheep メェー、メェー、黒羊さん
TTITLE12=Erin Keenan/Wee Willie Winkie ウィー・ウィリ・ウィンキー
TTITLE13=Hush-A-Bye Baby しずかにねんね
EXTD=
EXTT0=
EXTT1=
EXTT2=
EXTT3=
EXTT4=
EXTT5=
EXTT6=
EXTT7=
EXTT8=
EXTT9=
EXTT10=
EXTT11=
EXTT12=
EXTT13=
PLAYORDER=
